<svg xmlns="http://www.w3.org/2000/svg" width="47.443" height="47.764" viewBox="0 0 47.443 47.764"><g transform="translate(214.055 -538.473)"><path d="M-189.686,584.737q-9.94,0-16.4-6.465a21.627,21.627,0,0,1-6.464-15.917,21.632,21.632,0,0,1,6.464-15.917,22.072,22.072,0,0,1,16.283-6.465,22.5,22.5,0,0,1,12.441,3.659,19.342,19.342,0,0,1,7.928,9.881H-180.6q-3.232-4.148-9.209-4.148a12.459,12.459,0,0,0-9.422,3.72,12.866,12.866,0,0,0-3.568,9.27,12.8,12.8,0,0,0,3.6,9.269,12.621,12.621,0,0,0,9.513,3.721q9.575,0,11.221-8.478h-12.441v-9.086h22.5a32.131,32.131,0,0,1-.58,11.922,19.089,19.089,0,0,1-4.39,8.477,20.042,20.042,0,0,1-7.166,4.879A24.192,24.192,0,0,1-189.686,584.737Z" fill="none" stroke="#000000" stroke-linecap="round" stroke-linejoin="round" stroke-width="3"/></g></svg>