<svg xmlns="http://www.w3.org/2000/svg" width="65.31" height="47.764" viewBox="0 0 65.31 47.764"><g transform="translate(279.694 -538.473)"><rect width="62.31" height="44.764" rx="3.983" transform="translate(-278.194 539.973)" fill="none" stroke="#000000" stroke-linecap="round" stroke-linejoin="round" stroke-width="3"/><path d="M-219.868,539.973h-54.343a3.983,3.983,0,0,0-3.983,3.983v.424a3.983,3.983,0,0,0,1.7,3.264l27.16,19a3.983,3.983,0,0,0,4.581-.01l27.183-19.195a3.983,3.983,0,0,0,1.685-3.254v-.229A3.983,3.983,0,0,0-219.868,539.973Z" fill="none" stroke="#000000" stroke-linecap="round" stroke-linejoin="round" stroke-width="3"/><path d="M-249.334,566.644l-6.092-4.262-21.083,14.888a3.984,3.984,0,0,0-1.685,3.254v.229a3.984,3.984,0,0,0,3.983,3.984h54.343a3.984,3.984,0,0,0,3.983-3.984v-.423a3.982,3.982,0,0,0-1.7-3.264l-21.068-14.739-6.1,4.307A3.983,3.983,0,0,1-249.334,566.644Z" fill="none" stroke="#000000" stroke-linecap="round" stroke-linejoin="round" stroke-width="3"/></g></svg>